<svg id="Layer_1" data-name="Layer 1" xmlns="http://www.w3.org/2000/svg" viewBox="0 0 207 237"><defs><style>.cls-1{fill:#b1d1e5;}.cls-2{fill:#fff;}.cls-3{fill:#050505;}.cls-4{fill:#5b5b5b;}.cls-5{fill:#f09e1f;}.cls-6{fill:#1f2120;}.cls-7{fill:#7c122f;}.cls-8{fill:#a61d42;}</style></defs><title>logo</title><path d="M103.5,14.53c17.38-.36,37,6.78,37,6.78,4.12,1.27.57,9.09.57,9.09,31.31,11.92,36.48,36.53,36.48,36.53,7.76,3.13,8.3,11.3,8.3,11.3l-3.24,26.2c1.8.93,2.38,3.46,2.38,3.46,4.76,1.66,7.7,8.26,7.7,8.26,9.46,44.24-26.52,40.66-26.52,40.66-22.69,26.86-62.68,33.25-62.68,33.25s-40-6.39-62.68-33.25c0,0-36,3.58-26.52-40.66,0,0,2.94-6.6,7.7-8.26,0,0,.58-2.53,2.38-3.46l-3.24-26.2s.54-8.17,8.3-11.3c0,0,5.17-24.61,36.48-36.53,0,0-3.55-7.82.57-9.09C66.49,21.31,86.12,14.17,103.5,14.53Z"/><path class="cls-1" d="M103.39,96.61a96.29,96.29,0,0,0-39.34,7.29c10.32,2.2,17.47,11.28,24.9,13.62s10.92-8.39,10.92-8.39A14.22,14.22,0,0,1,99,123.84c-14.44,19.81-38,11.42-38,11.42,3.85-.28,11.55-3,11.55-3L61.3,127.7,58,116.83c-4-1.79-9.07.14-9.07.14.27-4.4,6-10.59,6-10.59-1.93.55-8.8,3.85-8.8,3.85C45.63,119,51,132.92,51,132.92c-3.16-1.1-6.33-6-6.33-6-4,20.9,0,24.48,0,24.48,17.47,21.73,58.73,31.36,58.73,31.36s41.25-9.63,58.72-31.36c0,0,4-3.58,0-24.48,0,0-3.16,4.95-6.33,6,0,0,5.37-13.89,4.82-22.69,0,0-6.88-3.3-8.8-3.85,0,0,5.77,6.19,6,10.59,0,0-5.09-1.93-9.08-.14l-3.3,10.87-11.28,4.53s7.7,2.75,11.55,3c0,0-23.51,8.39-37.95-11.42a14.21,14.21,0,0,1-.89-14.71s3.5,10.73,10.93,8.39,14.57-11.42,24.89-13.62A96.27,96.27,0,0,0,103.39,96.61Z"/><path class="cls-2" d="M103.39,182.71c-30.57-7.71-48-30.55-49.3-32.83a4.19,4.19,0,0,1,.44-4.45c2.28-.22,9.89-2.72,21.4-5.78A42.07,42.07,0,0,0,94.5,128.89c11.62-9.8,5.37-19.76,5.37-19.76-.61,3-3.58,6.14-3.58,6.14s-5.91,1.58-11.77-4.07-9.67-6.63-9.67-6.63,15.46-6.51,28.54-5.75c13.07-.76,28.54,5.75,28.54,5.75s-3.81,1-9.67,6.63-11.78,4.07-11.78,4.07-3-3.11-3.58-6.14c0,0-6.25,10,5.37,19.76a42.07,42.07,0,0,0,18.57,10.76c11.52,3.06,19.12,5.56,21.4,5.78a4.19,4.19,0,0,1,.44,4.45C151.38,152.16,134,175,103.39,182.71Z"/><path class="cls-3" d="M87,139.65s.92-5.49,16.39-5.82,16.54,5.82,16.54,5.82-.35,1.77-4.74,2.36a18.92,18.92,0,0,0-5,2.72c-2.73,2-6.76,1.66-6.76,1.66S97.78,147,94,143C94,143,87.94,141,87,139.65Z"/><path class="cls-3" d="M101.92,159.9s4.51,1.07,15.17-5.8c0,0,7.47-.95,5.69,3.79S107.61,165.11,101.92,159.9Z"/><path class="cls-4" d="M170.07,140.73s6.42-20.77,6.21-28.64h-8.8Z"/><path class="cls-4" d="M36.89,140.73S30.47,120,30.68,112.09h8.79Z"/><path class="cls-5" d="M173.57,147.39s8.51-25.15,9.14-31.24c0,0,8.38,6.85,3,19.43S173.57,147.39,173.57,147.39Z"/><path class="cls-5" d="M33.14,147.39s-8.5-25.15-9.14-31.24c0,0-8.38,6.85-3.05,19.43S33.14,147.39,33.14,147.39Z"/><path class="cls-5" d="M66.82,116.15s14.83,8.19,15.6,8.4-1.12,4.48-4.34,2.8S64.58,122.79,66.82,116.15Z"/><path class="cls-5" d="M139.92,116.15s-14.84,8.19-15.61,8.4,1.12,4.48,4.34,2.8S142.15,122.79,139.92,116.15Z"/><path class="cls-5" d="M32.6,73.49s.11,21.37,2.47,29.47l-4.4.68L28.55,78.78S28.33,75.07,32.6,73.49Z"/><path class="cls-5" d="M174.35,73.49s-.1,21.37-2.47,29.47l4.4.68,2.12-24.86S178.63,75.07,174.35,73.49Z"/><path class="cls-4" d="M136.63,41.85s16.65,5.24,27.14,14.08c0,0-3.8-10.38-26-18.19Z"/><path class="cls-4" d="M69.89,41.85S53.24,47.09,42.76,55.93c0,0,3.8-10.38,26-18.19Z"/><path class="cls-5" d="M77.1,38.73s26.81-11.43,52.54,0c0,0,5.93-5.32,3.21-12,0,0-33.36-10.4-58.93,0C73.92,26.7,71.62,34.12,77.1,38.73Z"/><path class="cls-6" d="M84.51,87.23s15.54-4.56,37.73,0a36.69,36.69,0,0,0-.52,4.49s-19.56-5.29-36.43,0A16.33,16.33,0,0,1,84.51,87.23Z"/><path class="cls-7" d="M84.5,81.27a74.33,74.33,0,0,1,37.74,0s0-12.26-18.87-12.68C84.86,69.46,85.49,77.19,84.5,81.27Z"/><path class="cls-8" d="M103.5,41.52c-22.25.7-46.23,12.54-57.22,22s-2,39.31-2,39.31L78.55,92.67c-6.77-34.38,20.42-32,25-32.27,0,0,31.72-2.11,24.95,32.27l34.24,10.14s8.39-29.68-2.6-39.12C151,53.89,125.75,42.22,103.5,41.52Z"/><path class="cls-7" d="M162.7,102.81,128.46,92.67s41.17,1.74,23.48-35.48l.19,0a43.66,43.66,0,0,1,8,6.48C171.08,73.13,162.7,102.81,162.7,102.81Z"/><path class="cls-7" d="M78.46,92.7,44.31,102.81s-9-29.87,2-39.31a71.66,71.66,0,0,1,9.35-6.66C37.05,95,78.44,92.67,78.44,92.67Z"/></svg>