<svg id="Layer_1" data-name="Layer 1" xmlns="http://www.w3.org/2000/svg" viewBox="0 0 207 237"><defs><style>.cls-1{fill:#b1d1e5;}.cls-2{fill:#fff;}.cls-3{fill:#050505;}.cls-4{fill:#5b5b5b;}.cls-5{fill:#f09e1f;}.cls-6{fill:#1f2120;}.cls-7{fill:#7c122f;}.cls-8{fill:#a61d42;}</style></defs><title>New Logo rgb</title><path d="M103.5,14.53c17.38-.36,37,6.78,37,6.78,4.12,1.27.57,9.09.57,9.09,31.31,11.92,36.48,36.53,36.48,36.53,7.76,3.13,8.3,11.3,8.3,11.3l-3.24,26.2c1.8.93,2.38,3.46,2.38,3.46,4.76,1.66,7.7,8.26,7.7,8.26,9.46,44.24-26.52,40.66-26.52,40.66-22.69,26.86-62.68,33.25-62.68,33.25s-40-6.39-62.68-33.25c0,0-36,3.58-26.52-40.66,0,0,2.94-6.6,7.7-8.26,0,0,.58-2.53,2.38-3.46l-3.24-26.2s.54-8.17,8.3-11.3c0,0,5.17-24.61,36.48-36.53,0,0-3.55-7.82.57-9.09C66.49,21.31,86.12,14.17,103.5,14.53Z"/><path class="cls-1" d="M103.39,96.61a96.29,96.29,0,0,0-39.34,7.29c10.32,2.2,17.47,11.28,24.9,13.62s10.92-8.39,10.92-8.39A14.22,14.22,0,0,1,99,123.84c-14.44,19.81-38,11.42-38,11.42,3.85-.28,11.55-3,11.55-3L61.3,127.7,58,116.83c-4-1.79-9.07.14-9.07.14.27-4.4,6-10.59,6-10.59-1.93.55-8.8,3.85-8.8,3.85C45.63,119,51,132.92,51,132.92c-3.16-1.1-6.33-6-6.33-6-4,20.9,0,24.48,0,24.48,17.47,21.73,58.73,31.36,58.73,31.36s41.25-9.63,58.72-31.36c0,0,4-3.58,0-24.48,0,0-3.16,4.95-6.33,6,0,0,5.37-13.89,4.82-22.69,0,0-6.88-3.3-8.8-3.85,0,0,5.77,6.19,6,10.59,0,0-5.09-1.93-9.08-.14l-3.3,10.87-11.28,4.53s7.7,2.75,11.55,3c0,0-23.51,8.39-37.95-11.42a14.21,14.21,0,0,1-.89-14.71s3.5,10.73,10.93,8.39,14.57-11.42,24.89-13.62A96.27,96.27,0,0,0,103.39,96.61Z"/><path class="cls-2" d="M103.39,182.71c-30.57-7.71-48-30.55-49.3-32.83a4.19,4.19,0,0,1,.44-4.45c2.28-.22,9.89-2.72,21.4-5.78A42.07,42.07,0,0,0,94.5,128.89c11.62-9.8,5.37-19.76,5.37-19.76-.61,3-3.58,6.14-3.58,6.14s-5.91,1.58-11.77-4.07-9.67-6.63-9.67-6.63,15.46-6.51,28.54-5.75c13.07-.76,28.54,5.75,28.54,5.75s-3.81,1-9.67,6.63-11.78,4.07-11.78,4.07-3-3.11-3.58-6.14c0,0-6.25,10,5.37,19.76a42.07,42.07,0,0,0,18.57,10.76c11.52,3.06,19.12,5.56,21.4,5.78a4.19,4.19,0,0,1,.44,4.45C151.38,152.16,134,175,103.39,182.71Z"/><path class="cls-3" d="M87,139.65s.92-5.49,16.39-5.82,16.54,5.82,16.54,5.82-.35,1.77-4.74,2.36a18.92,18.92,0,0,0-5,2.72c-2.73,2-6.76,1.66-6.76,1.66S97.78,147,94,143C94,143,87.94,141,87,139.65Z"/><path class="cls-3" d="M101.92,159.9s4.51,1.07,15.17-5.8c0,0,7.47-.95,5.69,3.79S107.61,165.11,101.92,159.9Z"/><path class="cls-4" d="M170.07,140.73s6.42-20.77,6.21-28.64h-8.8Z"/><path class="cls-4" d="M36.89,140.73S30.47,120,30.68,112.09h8.79Z"/><path class="cls-5" d="M173.57,147.39s8.51-25.15,9.14-31.24c0,0,8.38,6.85,3,19.43S173.57,147.39,173.57,147.39Z"/><path class="cls-5" d="M33.14,147.39s-8.5-25.15-9.14-31.24c0,0-8.38,6.85-3.05,19.43S33.14,147.39,33.14,147.39Z"/><path class="cls-5" d="M66.82,116.15s14.83,8.19,15.6,8.4-1.12,4.48-4.34,2.8S64.58,122.79,66.82,116.15Z"/><path class="cls-5" d="M139.92,116.15s-14.84,8.19-15.61,8.4,1.12,4.48,4.34,2.8S142.15,122.79,139.92,116.15Z"/><path class="cls-5" d="M32.6,73.49s.11,21.37,2.47,29.47l-4.4.68L28.55,78.78S28.33,75.07,32.6,73.49Z"/><path class="cls-5" d="M174.35,73.49s-.1,21.37-2.47,29.47l4.4.68,2.12-24.86S178.63,75.07,174.35,73.49Z"/><path class="cls-4" d="M136.63,41.85s16.65,5.24,27.14,14.08c0,0-3.8-10.38-26-18.19Z"/><path class="cls-4" d="M69.89,41.85S53.24,47.09,42.76,55.93c0,0,3.8-10.38,26-18.19Z"/><path class="cls-5" d="M77.1,38.73s26.81-11.43,52.54,0c0,0,5.93-5.32,3.21-12,0,0-33.36-10.4-58.93,0C73.92,26.7,71.62,34.12,77.1,38.73Z"/><path class="cls-6" d="M84.51,87.23s15.54-4.56,37.73,0a36.69,36.69,0,0,0-.52,4.49s-19.56-5.29-36.43,0A16.33,16.33,0,0,1,84.51,87.23Z"/><path class="cls-7" d="M84.5,81.27a74.33,74.33,0,0,1,37.74,0s0-12.26-18.87-12.68C84.86,69.46,85.49,77.19,84.5,81.27Z"/><path class="cls-8" d="M103.5,41.52c-22.25.7-46.23,12.54-57.22,22s-2,39.31-2,39.31L78.55,92.67c-6.77-34.38,20.42-32,25-32.27,0,0,31.72-2.11,24.95,32.27l34.24,10.14s8.39-29.68-2.6-39.12C151,53.89,125.75,42.22,103.5,41.52Z"/><path class="cls-7" d="M162.7,102.81,128.46,92.67s41.17,1.74,23.48-35.48l.19,0a43.66,43.66,0,0,1,8,6.48C171.08,73.13,162.7,102.81,162.7,102.81Z"/><path class="cls-7" d="M78.46,92.7,44.31,102.81s-9-29.87,2-39.31a71.66,71.66,0,0,1,9.35-6.66C37.05,95,78.44,92.67,78.44,92.67Z"/><path d="M17.79,224.73a5.56,5.56,0,0,1-2.92-.7A3.78,3.78,0,0,1,13,220.71a4,4,0,0,1,2.7-3.81V203.39a4.19,4.19,0,0,1-.5.6,4.11,4.11,0,0,1-2.92,1.2,4,4,0,0,1-3-1.32,4.3,4.3,0,0,1-1.11-3v-11.8H38.7v11.8a4.3,4.3,0,0,1-1.11,3,4,4,0,0,1-3,1.32,4.11,4.11,0,0,1-2.92-1.2,4.86,4.86,0,0,1-.54-.66v13.56a4,4,0,0,1,2.72,3.82,3.88,3.88,0,0,1-1.92,3.34,5.28,5.28,0,0,1-2.89.68Z"/><path class="cls-5" d="M11,192h5.77v2.66a4.4,4.4,0,0,0-1.6,1.51,9.33,9.33,0,0,0-1.28,3.53L13.66,201a1.8,1.8,0,0,1-.47,1,1.23,1.23,0,0,1-.91.36,1.18,1.18,0,0,1-.93-.4,1.45,1.45,0,0,1-.36-1Zm17.28,0v25.78A1.8,1.8,0,0,0,28.6,219a.87.87,0,0,0,.33.28c.1,0,.44.13,1,.27a1.17,1.17,0,0,1,1,1.21,1,1,0,0,1-.57.92,2.68,2.68,0,0,1-1.4.26H17.79a2.85,2.85,0,0,1-1.46-.29,1,1,0,0,1-.49-.89,1.17,1.17,0,0,1,1.05-1.21c.57-.14.91-.23,1-.27a.77.77,0,0,0,.31-.28,1.86,1.86,0,0,0,.32-1.22V192Zm7.59,0v9a1.45,1.45,0,0,1-.36,1,1.18,1.18,0,0,1-.93.4,1.23,1.23,0,0,1-.91-.36,1.8,1.8,0,0,1-.47-1L33,199.65a9.49,9.49,0,0,0-1.27-3.53,4.68,4.68,0,0,0-1.61-1.51V192Z"/><path d="M40.21,224.73a4.84,4.84,0,0,1-2.83-.8,3.81,3.81,0,0,1-1.65-3.18A3.94,3.94,0,0,1,38,217.12V196.73a3.94,3.94,0,0,1-2.23-3.64,3.79,3.79,0,0,1,1.65-3.17,4.84,4.84,0,0,1,2.83-.8H51.13a4.89,4.89,0,0,1,2.83.8,3.79,3.79,0,0,1,1.65,3.17,4,4,0,0,1-2.23,3.64v20.38a4,4,0,0,1,2.24,3.64A3.81,3.81,0,0,1,54,223.93a4.89,4.89,0,0,1-2.83.8Z"/><path class="cls-5" d="M50.56,221.89H40.21A2.1,2.1,0,0,1,39,221.6a1,1,0,0,1-.43-.85,1.14,1.14,0,0,1,.88-1.18q.72-.24.84-.3a.66.66,0,0,0,.26-.25,1.93,1.93,0,0,0,.26-1.12V196a1.9,1.9,0,0,0-.26-1.12.7.7,0,0,0-.26-.26l-.84-.29a1.15,1.15,0,0,1-.88-1.19,1,1,0,0,1,.43-.84,2.09,2.09,0,0,1,1.22-.3H51.13a2.11,2.11,0,0,1,1.22.3,1,1,0,0,1,.42.84,1.15,1.15,0,0,1-.87,1.19l-.85.29a.69.69,0,0,0-.25.26,1.9,1.9,0,0,0-.26,1.12v22A1.93,1.93,0,0,0,50.8,219a.65.65,0,0,0,.25.25c.08,0,.37.14.85.3a1.14,1.14,0,0,1,.87,1.18,1,1,0,0,1-.42.85,2.12,2.12,0,0,1-1.22.29Z"/><path d="M58,224.73a4.87,4.87,0,0,1-2.83-.8,3.81,3.81,0,0,1-1.65-3.18,3.94,3.94,0,0,1,2.23-3.63V196.73a4,4,0,0,1-2.23-3.64,3.79,3.79,0,0,1,1.65-3.17,4.87,4.87,0,0,1,2.83-.8H72.65c4,0,7.12.89,9.38,2.66a9.1,9.1,0,0,1,2.65,3.3,9.69,9.69,0,0,1,0,8.22,8.83,8.83,0,0,1-2.23,3,9.21,9.21,0,0,1,2.47,3.05A10.41,10.41,0,0,1,86,214a9.79,9.79,0,0,1-3.88,8.11,11.58,11.58,0,0,1-4.15,2,21.12,21.12,0,0,1-5.22.54Z"/><path class="cls-5" d="M68.35,192v29.94H58a2.1,2.1,0,0,1-1.22-.29,1,1,0,0,1-.43-.85,1.14,1.14,0,0,1,.88-1.18q.72-.24.84-.3a.66.66,0,0,0,.26-.25,1.93,1.93,0,0,0,.26-1.12V196a1.9,1.9,0,0,0-.26-1.12.7.7,0,0,0-.26-.26l-.84-.29a1.15,1.15,0,0,1-.88-1.19,1,1,0,0,1,.43-.84A2.09,2.09,0,0,1,58,192H68.35Zm6.82,14.44a25,25,0,0,1,3,.76,8.59,8.59,0,0,1,1.92.95,6.27,6.27,0,0,1,2.25,2.49,7.54,7.54,0,0,1,.77,3.45,7,7,0,0,1-2.76,5.86,8.75,8.75,0,0,1-3.15,1.55,18.88,18.88,0,0,1-4.5.44H70.13v-2.3a5.34,5.34,0,0,0,1.38-.25,2.35,2.35,0,0,0,.9-.63,3.72,3.72,0,0,0,.72-2.52v-5a5.92,5.92,0,0,0-.19-1.71,2.61,2.61,0,0,0-.69-1.12,2.4,2.4,0,0,0-.81-.57,5.75,5.75,0,0,0-1.25-.28v-2.28a5.93,5.93,0,0,0,1.26-.22,2.21,2.21,0,0,0,.82-.51,2.91,2.91,0,0,0,.86-1.82v-5a4.28,4.28,0,0,0-.2-1.24,3.23,3.23,0,0,0-.48-1,2.83,2.83,0,0,0-.93-.75,4.25,4.25,0,0,0-1.39-.32V192h2.52c3.33,0,5.88.69,7.63,2.06a6.17,6.17,0,0,1,1.84,2.29,6.54,6.54,0,0,1,.64,2.89,6.72,6.72,0,0,1-.65,2.9,6.15,6.15,0,0,1-1.81,2.26,7.76,7.76,0,0,1-2,1.14A23.92,23.92,0,0,1,75.17,206.39Z"/><path d="M88.09,224.73a4.89,4.89,0,0,1-2.83-.8,3.81,3.81,0,0,1-1.65-3.18,3.94,3.94,0,0,1,2.24-3.63V196.73a4,4,0,0,1-2.24-3.64,3.79,3.79,0,0,1,1.65-3.17,4.89,4.89,0,0,1,2.83-.8h14.63c4,0,7.12.89,9.38,2.66a9.23,9.23,0,0,1,2.66,3.3,9.69,9.69,0,0,1,0,8.22,9,9,0,0,1-2.24,3,9.09,9.09,0,0,1,2.47,3.05,10.41,10.41,0,0,1,1.08,4.73,9.79,9.79,0,0,1-3.88,8.11,11.58,11.58,0,0,1-4.15,2,21.07,21.07,0,0,1-5.22.54Z"/><path class="cls-5" d="M98.42,192v29.94H88.09a2.12,2.12,0,0,1-1.22-.29,1,1,0,0,1-.42-.85,1.14,1.14,0,0,1,.87-1.18c.49-.16.77-.26.85-.3a.65.65,0,0,0,.25-.25,1.93,1.93,0,0,0,.26-1.12V196a1.9,1.9,0,0,0-.26-1.12.69.69,0,0,0-.25-.26l-.85-.29a1.15,1.15,0,0,1-.87-1.19,1,1,0,0,1,.42-.84,2.11,2.11,0,0,1,1.22-.3H98.42Zm6.82,14.44a25,25,0,0,1,3,.76,8.59,8.59,0,0,1,1.92.95,6.27,6.27,0,0,1,2.25,2.49,7.55,7.55,0,0,1,.78,3.45,7,7,0,0,1-2.77,5.86,8.79,8.79,0,0,1-3.14,1.55,19,19,0,0,1-4.51.44H100.2v-2.3a5.34,5.34,0,0,0,1.38-.25,2.21,2.21,0,0,0,.9-.63,3.72,3.72,0,0,0,.72-2.52v-5a6.36,6.36,0,0,0-.18-1.71,2.82,2.82,0,0,0-.69-1.12,2.34,2.34,0,0,0-.82-.57,5.61,5.61,0,0,0-1.25-.28v-2.28a5.93,5.93,0,0,0,1.27-.22,2.3,2.3,0,0,0,.82-.51,2.73,2.73,0,0,0,.59-.85,2.61,2.61,0,0,0,.26-1v-5a4.25,4.25,0,0,0-.19-1.24,3.46,3.46,0,0,0-.49-1,2.64,2.64,0,0,0-.93-.75,4.19,4.19,0,0,0-1.39-.32V192h2.52q5,0,7.63,2.06a6.3,6.3,0,0,1,1.85,2.29,6.92,6.92,0,0,1,0,5.79,6.36,6.36,0,0,1-1.81,2.26,7.65,7.65,0,0,1-2,1.14A23.47,23.47,0,0,1,105.24,206.39Z"/><path d="M118.16,224.73a4.89,4.89,0,0,1-2.83-.8,3.83,3.83,0,0,1-1.65-3.18,4,4,0,0,1,2.24-3.63V196.73a4,4,0,0,1-2.24-3.64,3.81,3.81,0,0,1,1.65-3.17,4.89,4.89,0,0,1,2.83-.8h24v10.6a4.18,4.18,0,0,1-.94,2.82,3.81,3.81,0,0,1-2.83,1.3v5.86h.15a3.76,3.76,0,0,1,3.21,1.63,4.89,4.89,0,0,1,.72,2.83v10.58Zm13.17-8.29.39-.14a4.62,4.62,0,0,0,1.13-.74l.3-.27a3.73,3.73,0,0,1-1.58-1l-.24-.29Zm0-17.21.14-.16a3.68,3.68,0,0,1,1.19-.89,4.21,4.21,0,0,0-1.33-.63Z"/><path class="cls-5" d="M128.5,192v29.94H118.16a2.08,2.08,0,0,1-1.21-.29,1,1,0,0,1-.43-.85,1.14,1.14,0,0,1,.88-1.18q.72-.24.84-.3a.59.59,0,0,0,.25-.25,1.84,1.84,0,0,0,.27-1.12V196a1.82,1.82,0,0,0-.27-1.12.63.63,0,0,0-.25-.26l-.84-.29a1.15,1.15,0,0,1-.88-1.19,1,1,0,0,1,.43-.84,2.08,2.08,0,0,1,1.21-.3H128.5Zm1.84,16v-2.54a5.69,5.69,0,0,0,1.88-1.34,4.56,4.56,0,0,0,.9-1.93,2.58,2.58,0,0,1,.46-1.15,1,1,0,0,1,.82-.32,1,1,0,0,1,1,.55,3.4,3.4,0,0,1,.15,1.29v8.36a3,3,0,0,1-.23,1.42.87.87,0,0,1-.84.4,1,1,0,0,1-.79-.31,2.36,2.36,0,0,1-.46-1,5.63,5.63,0,0,0-1.06-2.32A3.34,3.34,0,0,0,130.34,207.92Zm.11-16h8.84v7.77a1.45,1.45,0,0,1-.27,1,1,1,0,0,1-.83.31,1,1,0,0,1-.7-.2,1.85,1.85,0,0,1-.42-.81,8.21,8.21,0,0,0-2.44-3.88,7.59,7.59,0,0,0-4.18-1.6Zm0,29.94v-2.36a10.39,10.39,0,0,0,2.36-.62,7,7,0,0,0,1.87-1.21,8.24,8.24,0,0,0,1.51-1.67,11.4,11.4,0,0,0,1.06-2.3,2.62,2.62,0,0,1,.5-.95,1,1,0,0,1,.73-.25.94.94,0,0,1,.85.36,2.4,2.4,0,0,1,.24,1.26v7.74Z"/><path d="M165.21,225.32a9,9,0,0,1-5.9-1.92,4.43,4.43,0,0,1-.82.65,5.17,5.17,0,0,1-2.86.68h-11.1a4.89,4.89,0,0,1-2.83-.8,3.81,3.81,0,0,1-1.65-3.18,3.94,3.94,0,0,1,2.23-3.63V196.73a4,4,0,0,1-2.24-3.64,3.79,3.79,0,0,1,1.65-3.17,4.89,4.89,0,0,1,2.83-.8H157.7c1.48,0,2.79.08,3.9.19a11.94,11.94,0,0,1,5.9,2.18,9.54,9.54,0,0,1,4.06,8.12,9.71,9.71,0,0,1-2.74,7l-.19.19a7.41,7.41,0,0,1,2,2.37,7.08,7.08,0,0,1,.82,3.31v1.23a4.23,4.23,0,0,1,3.33,4,5.86,5.86,0,0,1-1.12,3.22,10.66,10.66,0,0,1-2.21,2.4,8.44,8.44,0,0,1-2.9,1.53A11.46,11.46,0,0,1,165.21,225.32Z"/><path class="cls-5" d="M154.86,192v25.78a1.8,1.8,0,0,0,.33,1.22.87.87,0,0,0,.33.28c.1,0,.44.13,1,.27a1.17,1.17,0,0,1,1.05,1.21,1,1,0,0,1-.57.92,2.67,2.67,0,0,1-1.38.26h-11.1a2.12,2.12,0,0,1-1.22-.29,1,1,0,0,1-.43-.85,1.15,1.15,0,0,1,.88-1.18c.48-.16.77-.26.85-.3a.65.65,0,0,0,.25-.25,1.93,1.93,0,0,0,.26-1.12V196a1.9,1.9,0,0,0-.26-1.12.69.69,0,0,0-.25-.26l-.85-.29a1.16,1.16,0,0,1-.88-1.19,1,1,0,0,1,.43-.84,2.11,2.11,0,0,1,1.22-.3h10.33Zm6.74,15.27a18.15,18.15,0,0,1,3.1.68,7.57,7.57,0,0,1,2,1,4.66,4.66,0,0,1,1.42,1.62,4.25,4.25,0,0,1,.49,2v4.54c0,.47.15.7.46.7a.44.44,0,0,0,.3-.1,2.41,2.41,0,0,0,.34-.38,1.47,1.47,0,0,1,1.12-.75,1,1,0,0,1,.74.4,1.15,1.15,0,0,1,.38.79,3.2,3.2,0,0,1-.65,1.65,7.61,7.61,0,0,1-1.61,1.75,5.71,5.71,0,0,1-2,1,8.63,8.63,0,0,1-2.48.32,6,6,0,0,1-4.51-1.66,6.28,6.28,0,0,1-1.63-4.62v-3.68c0-.82,0-1.3,0-1.43a3,3,0,0,0-.61-1.51,2.66,2.66,0,0,0-1.82-.9v-2.35a3.25,3.25,0,0,0,1.68-.61,2.1,2.1,0,0,0,.61-.9,5.17,5.17,0,0,0,.16-1.49v-5.82a3.36,3.36,0,0,0-.53-2.06,3.71,3.71,0,0,0-1.95-1.07V192h.57a40.47,40.47,0,0,1,4.15.18,9,9,0,0,1,4.54,1.67,6.68,6.68,0,0,1,2.87,5.81,7,7,0,0,1-1.93,5.07A6.78,6.78,0,0,1,164.9,206,22.81,22.81,0,0,1,161.6,207.22Z"/><path d="M182.1,225.32v-.07a13.35,13.35,0,0,1-4-1.23l-.09,0a3.84,3.84,0,0,1-2.62,1.06c-2,0-4.06-1.46-4.06-4.72v-8a4.4,4.4,0,0,1,1-2.84,4.2,4.2,0,0,1,1.22-1,12,12,0,0,1-2.21-7.1,13.27,13.27,0,0,1,1.31-5.85,11.7,11.7,0,0,1,3.8-4.49,14.3,14.3,0,0,1,6.89-2.44v-.16l1.16.08,2.77-.15v.35a14,14,0,0,1,1.9.35,17.87,17.87,0,0,1,2.09.71,3.82,3.82,0,0,1,2.61-1,3.78,3.78,0,0,1,3.25,1.74,5.13,5.13,0,0,1,.72,2.88v7.24a4.29,4.29,0,0,1-1.08,2.92,3.9,3.9,0,0,1-.78.69,11.79,11.79,0,0,1,2.9,7.9,12.81,12.81,0,0,1-6.75,11.35,15.78,15.78,0,0,1-3.53,1.37,17.36,17.36,0,0,1-2.47.44v0Zm-2-11.82c.12.26.26.52.4.76a8.47,8.47,0,0,0,1.66,2.1,3.27,3.27,0,0,0,1.64.84l.32.07.14,0a4.09,4.09,0,0,0,1.42-.54s0-.09,0-.21,0-.16-.32-.43a12.9,12.9,0,0,0-2.63-1.36C181.66,214.21,180.79,213.82,180.11,213.5Zm5-16.88a1.48,1.48,0,0,0-.73.33c0,.19.06.24.08.26a3.09,3.09,0,0,0,1,.75c.33.19,1.22.62,3.45,1.6a7.34,7.34,0,0,0-1-1.46,4.66,4.66,0,0,0-2.5-1.46l-.22,0Z"/><path class="cls-5" d="M184.41,191.36v2.52a4.38,4.38,0,0,0-2.08,1.15,2.76,2.76,0,0,0-.71,1.92,3.19,3.19,0,0,0,.59,1.92,5.81,5.81,0,0,0,1.93,1.57q.93.51,4.17,1.93a22.33,22.33,0,0,1,3.06,1.55,10.24,10.24,0,0,1,2,1.72,9,9,0,0,1,2.59,6.47,9.93,9.93,0,0,1-5.26,8.86,12.94,12.94,0,0,1-2.89,1.11,11.73,11.73,0,0,1-2.93.41V220a6,6,0,0,0,2.76-1.29,3,3,0,0,0,.84-2.22,3.33,3.33,0,0,0-1.31-2.59,16.08,16.08,0,0,0-3.34-1.8c-1.8-.79-3-1.35-3.69-1.69a13.55,13.55,0,0,1-1.92-1.18,9.17,9.17,0,0,1-4.13-7.84,10.49,10.49,0,0,1,1-4.61,8.8,8.8,0,0,1,2.88-3.41A11.9,11.9,0,0,1,184.41,191.36ZM183.27,220v2.5a9.48,9.48,0,0,1-4-1c-.54-.25-.92-.41-1.12-.49a1.85,1.85,0,0,0-.59-.11,1.15,1.15,0,0,0-.66.15,3.79,3.79,0,0,0-.7.71,1.13,1.13,0,0,1-.86.48c-.82,0-1.23-.63-1.23-1.88v-8a1.59,1.59,0,0,1,.35-1,1.14,1.14,0,0,1,.88-.45,1,1,0,0,1,.76.27,2.58,2.58,0,0,1,.47,1,14.6,14.6,0,0,0,1.46,3.53,11.46,11.46,0,0,0,2.22,2.78A6.11,6.11,0,0,0,183.27,220Zm2.87-26.11v-2.41a12.25,12.25,0,0,1,2.28.34,21.58,21.58,0,0,1,2.74,1,2,2,0,0,0,.73.17.68.68,0,0,0,.61-.28l.48-.64a1,1,0,0,1,.86-.48,1,1,0,0,1,.87.43,2.58,2.58,0,0,1,.27,1.35v7.24a1.51,1.51,0,0,1-.36,1,1.18,1.18,0,0,1-.93.4,1.27,1.27,0,0,1-.81-.28,1.24,1.24,0,0,1-.32-.43,3.62,3.62,0,0,1-.23-.84,9,9,0,0,0-.84-2.22,9.87,9.87,0,0,0-1.38-2A7.54,7.54,0,0,0,186.14,193.88Z"/></svg>